<mxfile host="drawio-plugin" modified="2024-03-15T12:10:07.482Z" agent="5.0 (Macintosh; Intel Mac OS X 10_15_7) AppleWebKit/537.36 (KHTML, like Gecko) Chrome/111.0.0.0 Safari/537.36" etag="z5OhkMIaQY66Pwwzv5vd" version="20.5.3" type="embed"><diagram id="23iRSUPoRavnBvh4doch" name="Page-1"><mxGraphModel dx="2052" dy="696" grid="1" gridSize="10" guides="1" tooltips="1" connect="1" arrows="1" fold="1" page="1" pageScale="1" pageWidth="827" pageHeight="1169" math="0" shadow="0"><root><mxCell id="0"/><mxCell id="1" parent="0"/><mxCell id="2" value="" style="rounded=1;whiteSpace=wrap;html=1;dashed=1;fillColor=none;" parent="1" vertex="1"><mxGeometry x="30" y="40" width="360" height="250" as="geometry"/></mxCell><mxCell id="3" value="&lt;h1&gt;Обʼєкти зберігання&lt;/h1&gt;&lt;div&gt;це книжки, ігри, можливо ще щось&lt;/div&gt;&lt;div&gt;для опису використовуємо необхідну кількість таблиць (автори, жанри,&amp;nbsp; ...)&lt;/div&gt;&lt;div&gt;у кожного обʼєкта є власник (з користувачів)&lt;/div&gt;&lt;div&gt;&lt;br&gt;&lt;/div&gt;&lt;div&gt;Для опису властивостей обʼєкту що можуть змінюватись (як то - поточний користувач і локація, поточний стан) - створюються окремі сутності (&quot;переміщення&quot;, &quot;стани&quot;) - які&amp;nbsp; відстежують зміни, хто зафіксував зміну, час зміни і т.д.&lt;/div&gt;" style="text;html=1;strokeColor=none;fillColor=none;spacing=5;spacingTop=-20;whiteSpace=wrap;overflow=hidden;rounded=0;dashed=1;" parent="1" vertex="1"><mxGeometry x="40" y="50" width="350" height="230" as="geometry"/></mxCell><mxCell id="4" value="" style="rounded=1;whiteSpace=wrap;html=1;dashed=1;fillColor=none;" parent="1" vertex="1"><mxGeometry x="460" y="40" width="360" height="380" as="geometry"/></mxCell><mxCell id="5" value="&lt;h1&gt;Переміщення:&lt;/h1&gt;&lt;div&gt;- привʼязано до обʼєкту зберігання&lt;/div&gt;&lt;div&gt;- дата і час переміщення&lt;/div&gt;&lt;div&gt;- хто перемістив (id користувача який є або менеджером, або власником)&lt;/div&gt;&lt;div&gt;- локація на яку перемістили (якщо це звичайний користувач - то &quot;у користувача&quot;), якщо це &quot;власник&quot; - то якась з його локацій&lt;/div&gt;&lt;div&gt;- код підтвердження переміщення (цей код - це коротке повідомлення (цифри-букви), які відправляються тому хто &quot;приймає на себе&quot; обʼєкт зберігання (наприклад - користувачу який бере книгу) і ця людина називає цей код менеджеру, менеджер вводить код. Якщо він збігається - переміщення дозволено.)&lt;/div&gt;&lt;div&gt;- необовʼязково - примітка, яка може буде заповнена тим менеджером який&amp;nbsp; фіксує переміщення (який текст)&lt;/div&gt;" style="text;html=1;strokeColor=none;fillColor=none;spacing=5;spacingTop=-20;whiteSpace=wrap;overflow=hidden;rounded=0;dashed=1;" parent="1" vertex="1"><mxGeometry x="470" y="50" width="350" height="400" as="geometry"/></mxCell><mxCell id="6" value="" style="rounded=1;whiteSpace=wrap;html=1;dashed=1;fillColor=none;" parent="1" vertex="1"><mxGeometry x="460" y="470" width="360" height="180" as="geometry"/></mxCell><mxCell id="7" value="&lt;h1&gt;Стан обʼєкта&lt;/h1&gt;&lt;div&gt;- привʼязано до обʼєкту зберігання&lt;/div&gt;&lt;div&gt;- дата і час фіксації стану&lt;/div&gt;&lt;div&gt;- хто фіксує стан (id користувача який є менеджером або власником)&lt;/div&gt;&lt;div&gt;- стан (з якогось фіксованого набору станів)&lt;/div&gt;&lt;div&gt;- текстова примітка яка описує зміну стану&lt;/div&gt;" style="text;html=1;strokeColor=none;fillColor=none;spacing=5;spacingTop=-20;whiteSpace=wrap;overflow=hidden;rounded=0;dashed=1;" parent="1" vertex="1"><mxGeometry x="470" y="480" width="350" height="150" as="geometry"/></mxCell><mxCell id="8" value="" style="rounded=1;whiteSpace=wrap;html=1;dashed=1;fillColor=none;" parent="1" vertex="1"><mxGeometry x="-400" y="510" width="360" height="350" as="geometry"/></mxCell><mxCell id="9" value="&lt;h1&gt;Користувачі&lt;/h1&gt;&lt;div&gt;кожен користувач має категорію&lt;/div&gt;&lt;div&gt;&lt;span style=&quot;background-color: initial;&quot;&gt;- хто встановив категорію (посилання на іншого користувача. Суперузер може встановити лише суперузеру і власнику, власник - може встановити для менеджерів, інші користувачі реєструються самі)&lt;/span&gt;&lt;/div&gt;&lt;div&gt;&lt;span style=&quot;background-color: initial;&quot;&gt;- суперкористувач - має повний доступ до всього&lt;/span&gt;&lt;/div&gt;&lt;div&gt;- власник - може бути власником обʼєктів зберігання (стан може бути встановлений лише суперкористувачем)&lt;/div&gt;&lt;div&gt;- менеджер - здійснює опреації по переміщенню книг, може правити інформацію, додавати, видаляти про обʼєкти зберігання, які належуть власнику до якого відноситься менеджер&lt;/div&gt;&lt;div&gt;- звичайні користувачі - реєструються самі, можуть замовляти, отримувати і повертати книжки (за допомогою менеджерів), замовляти, коментувати, лайкати, тримувати повідомлення&lt;/div&gt;&lt;div&gt;- незареєстровані користувачі - все бачять, читають, нічого не можуть зробити&lt;/div&gt;&lt;div&gt;-&lt;/div&gt;" style="text;html=1;strokeColor=none;fillColor=none;spacing=5;spacingTop=-20;whiteSpace=wrap;overflow=hidden;rounded=0;dashed=1;" parent="1" vertex="1"><mxGeometry x="-390" y="520" width="350" height="340" as="geometry"/></mxCell><mxCell id="12" value="" style="rounded=1;whiteSpace=wrap;html=1;dashed=1;fillColor=none;" parent="1" vertex="1"><mxGeometry x="-400" y="890" width="360" height="145" as="geometry"/></mxCell><mxCell id="13" value="&lt;h1&gt;Локації&lt;/h1&gt;&lt;div&gt;- звʼязані з користувачами&lt;/div&gt;&lt;div&gt;- обовʼязково заповнюється для власників і може бути скільки завгодно для власника (фактично це локації де фізично знаходяться обʼєкти зберігання)&lt;/div&gt;" style="text;html=1;strokeColor=none;fillColor=none;spacing=5;spacingTop=-20;whiteSpace=wrap;overflow=hidden;rounded=0;dashed=1;" parent="1" vertex="1"><mxGeometry x="-390" y="900" width="350" height="125" as="geometry"/></mxCell><mxCell id="14" value="" style="rounded=1;whiteSpace=wrap;html=1;dashed=1;fillColor=none;" vertex="1" parent="1"><mxGeometry x="-800" y="50" width="360" height="170" as="geometry"/></mxCell><mxCell id="15" value="&lt;h1&gt;Канали звʼязку:&lt;/h1&gt;&lt;div&gt;- перелік взагалі можливих каналів звʼязку&lt;/div&gt;&lt;div&gt;- вони повʼязані відношеннями &quot;багато-до багатьох&quot; з користувачами, мають пріоритезацію (?). Таблиця через яку реалізується звʼязок &quot;багато-до-багатоьх&quot; з користувачами включає унікальний ідентифікатор для кожного запису&lt;/div&gt;&lt;div&gt;&lt;br&gt;&lt;/div&gt;" style="text;html=1;strokeColor=none;fillColor=none;spacing=5;spacingTop=-20;whiteSpace=wrap;overflow=hidden;rounded=0;dashed=1;" vertex="1" parent="1"><mxGeometry x="-790" y="60" width="350" height="150" as="geometry"/></mxCell><mxCell id="16" value="" style="rounded=1;whiteSpace=wrap;html=1;dashed=1;fillColor=none;" vertex="1" parent="1"><mxGeometry x="-800" y="250" width="360" height="250" as="geometry"/></mxCell><mxCell id="17" value="&lt;h1&gt;Повідомлення:&lt;/h1&gt;&lt;div&gt;- повідомлення відправляється від користувача до користувача (наприклад - від власника книги читачу)&lt;/div&gt;&lt;div&gt;- фіксуємо канал відправки і дату&lt;/div&gt;&lt;div&gt;- фіксуємо час доставки&lt;/div&gt;&lt;div&gt;- фіксуємо прочитання (якщо це можливо для каналу звʼязку)&lt;/div&gt;&lt;div&gt;&lt;br&gt;&lt;/div&gt;" style="text;html=1;strokeColor=none;fillColor=none;spacing=5;spacingTop=-20;whiteSpace=wrap;overflow=hidden;rounded=0;dashed=1;" vertex="1" parent="1"><mxGeometry x="-790" y="260" width="350" height="230" as="geometry"/></mxCell><mxCell id="18" value="" style="rounded=1;whiteSpace=wrap;html=1;dashed=1;fillColor=none;" vertex="1" parent="1"><mxGeometry x="70" y="760" width="360" height="145" as="geometry"/></mxCell><mxCell id="19" value="&lt;h1&gt;Корзина:&lt;/h1&gt;&lt;div&gt;- одна на кожного користувача&lt;/div&gt;&lt;div&gt;- на основі коризини формується замовлення для отримання-видачі&lt;/div&gt;" style="text;html=1;strokeColor=none;fillColor=none;spacing=5;spacingTop=-20;whiteSpace=wrap;overflow=hidden;rounded=0;dashed=1;" vertex="1" parent="1"><mxGeometry x="80" y="770" width="350" height="125" as="geometry"/></mxCell><mxCell id="20" value="" style="rounded=1;whiteSpace=wrap;html=1;dashed=1;fillColor=none;" vertex="1" parent="1"><mxGeometry x="75" y="960" width="360" height="145" as="geometry"/></mxCell><mxCell id="21" value="&lt;h1&gt;Замовлення:&lt;/h1&gt;" style="text;html=1;strokeColor=none;fillColor=none;spacing=5;spacingTop=-20;whiteSpace=wrap;overflow=hidden;rounded=0;dashed=1;" vertex="1" parent="1"><mxGeometry x="85" y="970" width="350" height="125" as="geometry"/></mxCell></root></mxGraphModel></diagram></mxfile>